<svg width="29" height="30" viewBox="0 0 29 30" fill="none" xmlns="http://www.w3.org/2000/svg">
<path d="M27.6998 23.1274C26.6138 22.0315 24.002 20.3781 22.7071 19.7609C21.2124 19.0366 20.6632 19.0491 19.6053 19.8207C18.7254 20.4506 18.1543 21.0584 17.1433 20.8348C16.1323 20.6112 14.129 19.0869 12.1912 17.1376C10.2534 15.1882 8.74931 13.1789 8.534 12.1428C8.31869 11.1067 8.91159 10.543 9.54192 9.65494C10.3033 8.58734 10.3251 8.03307 9.6012 6.52458C8.97712 5.21764 7.3576 2.58802 6.26233 1.48578C5.16706 0.383543 4.9299 0.626035 4.33078 0.85593C3.71419 1.11679 3.12206 1.43298 2.56149 1.80071C1.47558 2.53448 0.867099 3.14544 0.439599 4.06502C0.0120985 4.9846 -0.471573 6.69149 2.01542 11.1603C3.85005 14.5789 6.17372 17.7061 8.91158 20.4411C11.6308 23.2106 14.74 25.56 18.1387 27.4136C22.5635 29.933 24.2579 29.4322 25.1691 29.0039C26.0803 28.5756 26.6856 27.9678 27.4096 26.8624C27.7746 26.2971 28.0879 25.6994 28.3457 25.0768C28.5516 24.4722 28.795 24.2265 27.6998 23.1274Z" fill="#FF5300"/>
</svg>
